<svg version="1.1" id="Layer_1" xmlns="http://www.w3.org/2000/svg" xmlns:xlink="http://www.w3.org/1999/xlink" x="0px" y="0px" viewBox="131 -131 512 512" style="enable-background: new 131 -131 512 512;" xml:space="preserve">
	<path d="M634.9-3.5c8.4,12.1,10.2,25.1,5.6,40l-84.7,278.4c-3.7,13-12.1,24.2-23.3,33.5c-12.1,9.3-24.2,13-37.2,13
		h-284c-15.8,0-30.7-5.6-45.6-16.8c-14.9-11.2-25.1-24.2-30.7-40c-4.7-14-5.6-27-0.9-39.1c0-0.9,0-3.7,0.9-8.4
		c0.9-4.7,0.9-8.4,0.9-11.2c0-1.9,0-3.7-0.9-6.5c-0.9-2.8-0.9-4.7-0.9-5.6c0-1.9,0.9-4.7,2.8-6.5c0.9-1.9,2.8-4.7,4.7-7.4
		c1.9-2.8,3.7-5.6,4.7-7.4c4.7-7.4,9.3-16.8,14-27.9c4.7-11.2,7.4-20.5,9.3-27.9c0.9-1.9,0.9-5.6,0-9.3c-0.9-3.7-0.9-6.5,0-8.4
		c0.9-1.9,2.8-5.6,5.6-8.4c2.8-3.7,4.7-5.6,5.6-7.4c4.7-7.4,8.4-16.8,13-27.9c4.6-11.1,6.5-20.5,7.4-27.9c0-1.9,0-5.6-0.9-10.2
		c-0.9-4.6-0.9-7.4,0-8.4c0.9-2.8,2.8-5.6,6.5-9.3c3.7-3.7,5.6-5.6,6.5-6.5c3.7-5.6,8.4-14,13-26.1c4.7-12.1,7.4-22.3,8.4-29.8
		c0-1.9,0-4.7-0.9-7.4c-0.9-3.7-0.9-6.5-0.9-8.4s0.9-3.7,2.8-5.6s3.7-4.7,5.6-7.4c1.9-2.8,3.7-4.7,5.6-6.5c1.9-2.8,3.7-5.6,4.7-9.3
		c1.9-3.7,3.7-7.4,4.7-11.2c0.9-3.7,2.8-7.4,4.7-11.2c1.9-3.7,3.7-7.4,5.6-10.2c1.9-2.8,4.7-4.7,8.4-7.4c3.7-1.9,7.4-3.7,11.2-3.7
		c3.7,0,9.3,0,14.9,1.9v0.9c7.4-1.9,13-2.8,15.8-2.8h233.7c14.9,0,27,5.6,35.4,16.8c8.4,11.2,10.2,25.1,5.6,40L507.8,224
		c-7.4,24.2-14.9,40-22.3,47.5c-7.4,7.4-20.5,10.2-39.1,10.2H179.7c-5.6,0-9.3,1.9-12.1,4.7c-1.9,3.7-2.8,7.4,0,13
		c4.7,14,19.6,21.4,44.7,21.4h283.9c5.6,0,12.1-1.9,16.8-4.7c5.6-2.8,9.3-7.4,11.2-13L616.4-0.4c1.9-4.7,1.9-10.2,1.9-17.7
		C624.7-13.7,631.2-9.1,634.9-3.5z M308.2-2.5c-0.9,2.8-0.9,4.7,0.9,6.5c0.9,1.9,3.7,2.8,6.5,2.8h187.1c2.8,0,5.6-0.9,7.4-2.8
		c1.9-1.9,4.7-4.7,4.7-6.5l6.5-19.6c0.9-2.8,0.9-4.7-0.9-6.5s-3.7-2.8-6.5-2.8H327.7c-2.8,0-5.6,0.9-7.4,2.8
		c-2.8,1.9-4.7,4.7-4.7,6.5L308.2-2.5z M283,75.7c-0.9,2.8-0.9,4.7,0.9,6.5c1.9,1.9,3.7,2.8,6.5,2.8h187.1c2.8,0,5.6-0.9,7.4-2.8
		c2.8-1.9,4.7-4.7,4.7-6.5l6.5-19.6c0.9-2.8,0.9-4.7-0.9-6.5s-3.7-2.8-6.5-2.8H301.6c-2.8,0-5.6,0.9-7.4,2.8
		c-2.8,1.9-4.7,4.7-4.7,6.5L283,75.7z"/>
</svg>
